<?xml version="1.0" encoding="utf-8"?>
<!-- Generator: Adobe Illustrator 21.0.0, SVG Export Plug-In . SVG Version: 6.00 Build 0)  -->
<svg version="1.1" id="Capa_1" xmlns="http://www.w3.org/2000/svg" xmlns:xlink="http://www.w3.org/1999/xlink" x="0px" y="0px"
	 viewBox="0 0 173.4 60.3" style="enable-background:new 0 0 173.4 60.3;" xml:space="preserve">
<style type="text/css">
	.st0{fill:#727176;}
	.st1{fill-rule:evenodd;clip-rule:evenodd;fill:#C85C74;}
	.st2{fill-rule:evenodd;clip-rule:evenodd;fill:#ECD033;}
	.st3{fill-rule:evenodd;clip-rule:evenodd;fill:#6E6CA9;}
	.st4{fill-rule:evenodd;clip-rule:evenodd;fill:#7CB4A2;}
	.st5{fill-rule:evenodd;clip-rule:evenodd;fill:#003847;}
	.st6{fill-rule:evenodd;clip-rule:evenodd;fill:#64A23D;}
	.st7{fill-rule:evenodd;clip-rule:evenodd;fill:#C85319;}
	.st8{fill-rule:evenodd;clip-rule:evenodd;fill:#6C1368;}
</style>
<g>
	<path class="st0" d="M88.2,35.9c0,0.3,0,0.6,0,0.9c0,0.2-0.1,0.4-0.1,0.6c0,0.2-0.1,0.3-0.2,0.4c-0.1,0.1-0.2,0.3-0.4,0.4
		c-0.2,0.2-0.5,0.4-1,0.6c-0.5,0.2-1.1,0.5-1.7,0.7c-0.7,0.2-1.5,0.4-2.4,0.6c-0.9,0.1-1.8,0.2-2.9,0.2c-2,0-3.8-0.3-5.4-0.8
		c-1.6-0.6-3-1.4-4.1-2.5c-1.1-1.1-2-2.5-2.6-4.1c-0.6-1.6-0.9-3.6-0.9-5.7c0-2.2,0.3-4.2,1-5.9c0.7-1.7,1.6-3.2,2.8-4.4
		c1.2-1.2,2.6-2.1,4.3-2.7c1.7-0.6,3.5-0.9,5.5-0.9c0.8,0,1.6,0.1,2.4,0.2c0.8,0.1,1.5,0.3,2.1,0.5c0.6,0.2,1.2,0.4,1.7,0.7
		c0.5,0.3,0.9,0.5,1.1,0.7c0.2,0.2,0.3,0.3,0.4,0.5c0.1,0.1,0.1,0.3,0.2,0.5c0,0.2,0.1,0.4,0.1,0.7c0,0.3,0,0.6,0,1c0,0.4,0,0.7,0,1
		c0,0.3-0.1,0.5-0.2,0.7c-0.1,0.2-0.2,0.3-0.3,0.4c-0.1,0.1-0.2,0.1-0.4,0.1c-0.2,0-0.5-0.1-0.9-0.4c-0.3-0.2-0.8-0.5-1.4-0.8
		c-0.5-0.3-1.2-0.6-2-0.8c-0.8-0.2-1.7-0.4-2.7-0.4c-1.2,0-2.2,0.2-3.1,0.6c-0.9,0.4-1.7,1-2.3,1.8c-0.6,0.8-1.1,1.7-1.5,2.9
		c-0.3,1.1-0.5,2.4-0.5,3.8c0,1.5,0.2,2.9,0.5,4c0.4,1.1,0.9,2.1,1.5,2.8c0.7,0.7,1.5,1.3,2.4,1.6c0.9,0.4,2,0.5,3.1,0.5
		c1.1,0,2-0.1,2.7-0.3c0.8-0.2,1.4-0.5,2-0.7c0.6-0.3,1-0.5,1.4-0.7c0.4-0.2,0.6-0.3,0.8-0.3c0.2,0,0.3,0,0.4,0.1
		c0.1,0.1,0.2,0.2,0.2,0.3c0.1,0.2,0.1,0.4,0.1,0.7C88.2,35,88.2,35.4,88.2,35.9"/>
	<path class="st0" d="M109.9,29.6c0,0.6-0.2,1.1-0.5,1.4c-0.3,0.3-0.7,0.4-1.3,0.4H95.9c0,0.8,0.1,1.5,0.3,2.1
		c0.2,0.6,0.5,1.2,1,1.6c0.4,0.4,1,0.8,1.7,1c0.7,0.2,1.5,0.3,2.5,0.3c1,0,1.9-0.1,2.6-0.2c0.8-0.1,1.4-0.3,2-0.4
		c0.6-0.2,1-0.3,1.4-0.4c0.4-0.1,0.7-0.2,0.9-0.2c0.1,0,0.3,0,0.3,0.1c0.1,0,0.2,0.1,0.2,0.3c0.1,0.1,0.1,0.3,0.1,0.5
		c0,0.2,0,0.5,0,0.8c0,0.3,0,0.5,0,0.8c0,0.2,0,0.4-0.1,0.5c0,0.1-0.1,0.3-0.1,0.4c-0.1,0.1-0.1,0.2-0.2,0.3
		c-0.1,0.1-0.4,0.2-0.8,0.4c-0.4,0.2-1,0.3-1.7,0.5c-0.7,0.2-1.5,0.3-2.3,0.4c-0.9,0.1-1.8,0.2-2.8,0.2c-1.8,0-3.4-0.2-4.7-0.6
		c-1.4-0.4-2.5-1-3.4-1.8c-0.9-0.8-1.6-1.9-2-3.1c-0.4-1.3-0.7-2.7-0.7-4.4c0-1.6,0.2-3.1,0.7-4.3c0.5-1.3,1.1-2.4,2-3.3
		c0.9-0.9,2-1.6,3.3-2.1c1.3-0.5,2.7-0.7,4.3-0.7c1.7,0,3.1,0.2,4.3,0.7c1.2,0.4,2.2,1.1,3,1.9c0.8,0.8,1.3,1.7,1.7,2.8
		c0.4,1.1,0.5,2.3,0.5,3.5V29.6z M104.4,28.1c0-1.4-0.3-2.6-1-3.4c-0.7-0.8-1.8-1.2-3.2-1.2c-0.7,0-1.4,0.1-1.9,0.4
		c-0.5,0.2-1,0.6-1.3,1c-0.4,0.4-0.6,0.9-0.8,1.5s-0.3,1.2-0.3,1.8H104.4z"/>
	<path class="st0" d="M131.4,39.3c0,0.1,0,0.3-0.1,0.4c-0.1,0.1-0.2,0.2-0.5,0.3c-0.2,0.1-0.5,0.1-0.9,0.2c-0.4,0-0.8,0.1-1.4,0.1
		c-0.6,0-1,0-1.4-0.1c-0.4,0-0.7-0.1-0.9-0.2c-0.2-0.1-0.4-0.2-0.5-0.3c-0.1-0.1-0.1-0.2-0.1-0.4V28.8c0-0.9-0.1-1.6-0.2-2.1
		c-0.1-0.5-0.4-0.9-0.6-1.3c-0.3-0.4-0.6-0.6-1.1-0.8c-0.4-0.2-0.9-0.3-1.5-0.3c-0.7,0-1.5,0.2-2.2,0.7c-0.7,0.5-1.5,1.2-2.3,2.1
		v12.2c0,0.1,0,0.3-0.1,0.4c-0.1,0.1-0.2,0.2-0.5,0.3c-0.2,0.1-0.5,0.1-0.9,0.2c-0.4,0-0.8,0.1-1.4,0.1c-0.6,0-1,0-1.4-0.1
		c-0.4,0-0.7-0.1-0.9-0.2c-0.2-0.1-0.4-0.2-0.5-0.3c-0.1-0.1-0.1-0.2-0.1-0.4V21.1c0-0.1,0-0.3,0.1-0.4c0.1-0.1,0.2-0.2,0.4-0.3
		c0.2-0.1,0.4-0.1,0.8-0.2c0.3,0,0.7-0.1,1.2-0.1c0.5,0,0.9,0,1.2,0.1c0.3,0,0.6,0.1,0.7,0.2c0.2,0.1,0.3,0.2,0.4,0.3
		c0.1,0.1,0.1,0.2,0.1,0.4v2.1c1.1-1.1,2.3-1.9,3.4-2.4c1.2-0.5,2.4-0.8,3.6-0.8c1.4,0,2.5,0.2,3.5,0.6c0.9,0.4,1.7,1,2.3,1.7
		c0.6,0.7,1,1.5,1.3,2.4c0.3,0.9,0.4,2.1,0.4,3.4V39.3z"/>
	<path class="st0" d="M149.8,34c0,1-0.2,1.9-0.6,2.7c-0.4,0.8-1,1.4-1.8,2c-0.8,0.5-1.7,0.9-2.8,1.2c-1.1,0.3-2.2,0.4-3.5,0.4
		c-0.8,0-1.5-0.1-2.2-0.2c-0.7-0.1-1.3-0.2-1.8-0.4c-0.5-0.2-1-0.3-1.4-0.5c-0.4-0.2-0.6-0.3-0.8-0.5c-0.2-0.1-0.3-0.4-0.4-0.7
		c-0.1-0.3-0.1-0.8-0.1-1.3c0-0.4,0-0.7,0-0.9c0-0.2,0.1-0.4,0.1-0.6c0.1-0.1,0.1-0.2,0.2-0.3c0.1,0,0.2-0.1,0.3-0.1
		c0.2,0,0.4,0.1,0.7,0.3c0.3,0.2,0.7,0.4,1.2,0.6c0.5,0.2,1,0.4,1.7,0.6c0.6,0.2,1.4,0.3,2.2,0.3c0.5,0,1,0,1.4-0.1
		c0.4-0.1,0.7-0.2,1-0.4c0.3-0.2,0.5-0.4,0.7-0.7c0.1-0.3,0.2-0.6,0.2-0.9c0-0.4-0.1-0.8-0.4-1c-0.3-0.3-0.6-0.5-1.1-0.8
		c-0.5-0.2-1-0.4-1.6-0.6c-0.6-0.2-1.2-0.4-1.8-0.6c-0.6-0.2-1.2-0.5-1.8-0.8c-0.6-0.3-1.1-0.7-1.6-1.1s-0.8-1-1.1-1.6
		c-0.3-0.6-0.4-1.3-0.4-2.2c0-0.9,0.2-1.7,0.6-2.4c0.4-0.7,0.9-1.3,1.6-1.9c0.7-0.5,1.6-0.9,2.6-1.2c1-0.3,2.2-0.4,3.4-0.4
		c0.6,0,1.3,0,1.8,0.1c0.6,0.1,1.1,0.2,1.6,0.3c0.5,0.1,0.9,0.3,1.2,0.4c0.3,0.1,0.6,0.3,0.7,0.4c0.1,0.1,0.2,0.2,0.3,0.3
		c0.1,0.1,0.1,0.2,0.1,0.4c0,0.1,0.1,0.3,0.1,0.5c0,0.2,0,0.5,0,0.8c0,0.4,0,0.7,0,0.9c0,0.2-0.1,0.4-0.1,0.5
		c-0.1,0.1-0.1,0.2-0.2,0.3c-0.1,0-0.2,0.1-0.3,0.1c-0.1,0-0.3-0.1-0.6-0.2c-0.3-0.1-0.6-0.3-1.1-0.5c-0.4-0.2-0.9-0.3-1.5-0.5
		c-0.6-0.1-1.2-0.2-1.9-0.2c-0.5,0-1,0-1.3,0.1c-0.4,0.1-0.7,0.2-0.9,0.4c-0.2,0.2-0.4,0.4-0.5,0.6c-0.1,0.2-0.2,0.5-0.2,0.8
		c0,0.4,0.1,0.8,0.4,1.1c0.3,0.3,0.7,0.5,1.1,0.7c0.5,0.2,1,0.4,1.6,0.6c0.6,0.2,1.2,0.4,1.8,0.6c0.6,0.2,1.2,0.5,1.8,0.8
		c0.6,0.3,1.1,0.7,1.6,1.1c0.5,0.4,0.8,0.9,1.1,1.5C149.6,32.5,149.8,33.2,149.8,34"/>
	<path class="st0" d="M173.4,29.9c0,1.5-0.2,2.9-0.7,4.2c-0.5,1.3-1.1,2.4-2.1,3.3c-0.9,0.9-2.1,1.6-3.5,2.1c-1.4,0.5-3,0.7-4.9,0.7
		c-1.8,0-3.4-0.2-4.7-0.7c-1.3-0.4-2.4-1.1-3.3-1.9c-0.9-0.9-1.5-1.9-1.9-3.1c-0.5-1.5-0.6-2.6-0.6-4.3c0-1.5,0.2-2.9,0.7-4.2
		c0.5-1.3,1.1-2.4,2.1-3.3c0.9-0.9,2.1-1.6,3.5-2.1c1.4-0.5,3-0.7,4.9-0.7c1.8,0,3.4,0.2,4.7,0.7c1.3,0.4,2.4,1.1,3.3,1.9
		c0.9,0.9,1.5,1.9,1.9,3.1C173.2,26.9,173.4,28.3,173.4,29.9 M167.5,30.1c0-0.9-0.1-1.7-0.2-2.5c-0.2-0.8-0.4-1.4-0.8-2
		c-0.4-0.6-0.9-1-1.5-1.3c-0.6-0.3-1.4-0.5-2.4-0.5c-0.8,0-1.6,0.1-2.2,0.4c-0.6,0.3-1.2,0.7-1.6,1.2c-0.4,0.5-0.7,1.2-0.9,1.9
		c-0.2,0.7-0.3,1.6-0.3,2.6c0,0.9,0.1,1.7,0.3,2.5c0.2,0.7,0.4,1.4,0.8,2c0.4,0.6,0.9,1,1.5,1.3c0.6,0.3,1.4,0.5,2.4,0.5
		c0.9,0,1.6-0.1,2.2-0.4c0.6-0.3,1.2-0.7,1.6-1.2c0.4-0.5,0.7-1.2,0.9-1.9C167.4,31.9,167.5,31.1,167.5,30.1"/>
	<path class="st0" d="M29.2,28.2c0,0.2,0,0.3,0,0.4c0,0.1,0,0.2-0.1,0.3c0,0.1-0.1,0.1-0.1,0.1c0,0-0.1,0-0.1,0h-6.1
		c-0.1,0-0.2,0-0.3,0c-0.1,0-0.2-0.1-0.2-0.1c-0.1-0.1-0.1-0.1-0.1-0.3c0-0.1,0-0.3,0-0.4c0-0.2,0-0.3,0-0.4c0-0.1,0-0.2,0.1-0.3
		c0-0.1,0.1-0.2,0.2-0.3c0.1-0.1,0.2-0.2,0.3-0.3l1.9-1.9c0.4-0.4,0.7-0.7,0.9-1c0.2-0.3,0.4-0.6,0.5-0.8c0.1-0.2,0.2-0.5,0.3-0.7
		c0-0.2,0.1-0.4,0.1-0.6c0-0.2,0-0.3-0.1-0.5c-0.1-0.2-0.1-0.3-0.3-0.4c-0.1-0.1-0.3-0.2-0.4-0.3c-0.2-0.1-0.4-0.1-0.6-0.1
		c-0.3,0-0.6,0-0.9,0.1s-0.5,0.2-0.7,0.3c-0.2,0.1-0.3,0.2-0.5,0.3c-0.1,0.1-0.2,0.1-0.3,0.1c-0.1,0-0.1,0-0.1,0
		c0,0-0.1-0.1-0.1-0.2c0-0.1,0-0.2-0.1-0.3c0-0.1,0-0.3,0-0.4c0-0.1,0-0.2,0-0.3c0-0.1,0-0.1,0-0.2c0-0.1,0-0.1,0.1-0.2
		c0,0,0.1-0.1,0.1-0.2c0.1-0.1,0.2-0.1,0.4-0.2c0.2-0.1,0.4-0.2,0.7-0.3c0.3-0.1,0.6-0.2,0.9-0.2c0.3-0.1,0.7-0.1,1-0.1
		c0.6,0,1,0.1,1.5,0.2c0.4,0.1,0.8,0.3,1,0.6c0.3,0.2,0.5,0.5,0.6,0.8c0.1,0.3,0.2,0.7,0.2,1c0,0.3,0,0.6-0.1,1
		c-0.1,0.3-0.2,0.7-0.4,1c-0.2,0.4-0.5,0.8-0.9,1.2c-0.4,0.4-0.9,1-1.5,1.5l-1.2,1.2h4.2c0.1,0,0.1,0,0.2,0c0,0,0.1,0.1,0.1,0.1
		c0,0.1,0.1,0.1,0.1,0.3C29.2,27.9,29.2,28.1,29.2,28.2"/>
	<path class="st0" d="M37.7,24c0,0.8-0.1,1.5-0.2,2.2c-0.1,0.6-0.4,1.2-0.7,1.6c-0.3,0.5-0.7,0.8-1.2,1c-0.5,0.2-1.1,0.4-1.8,0.4
		c-0.7,0-1.3-0.1-1.8-0.4c-0.5-0.2-0.9-0.6-1.1-1c-0.3-0.4-0.5-1-0.6-1.6c-0.1-0.6-0.2-1.4-0.2-2.2c0-0.8,0.1-1.5,0.2-2.2
		c0.1-0.6,0.4-1.2,0.7-1.7c0.3-0.5,0.7-0.8,1.2-1c0.5-0.2,1.1-0.4,1.8-0.4c0.7,0,1.3,0.1,1.8,0.4c0.5,0.2,0.9,0.6,1.1,1
		c0.3,0.4,0.5,1,0.6,1.6C37.6,22.5,37.7,23.2,37.7,24 M35.5,24.1c0-0.5,0-0.9,0-1.3c0-0.4-0.1-0.7-0.1-0.9c-0.1-0.3-0.1-0.5-0.2-0.7
		c-0.1-0.2-0.2-0.3-0.3-0.4c-0.1-0.1-0.3-0.2-0.4-0.2c-0.2,0-0.3-0.1-0.5-0.1c-0.3,0-0.6,0.1-0.8,0.2c-0.2,0.1-0.4,0.4-0.5,0.7
		c-0.1,0.3-0.2,0.7-0.3,1.1c0,0.4-0.1,0.9-0.1,1.5c0,0.7,0,1.3,0.1,1.8c0.1,0.5,0.2,0.8,0.3,1.1c0.1,0.3,0.3,0.5,0.5,0.6
		c0.2,0.1,0.5,0.2,0.7,0.2c0.2,0,0.4,0,0.6-0.1c0.2-0.1,0.3-0.2,0.4-0.3c0.1-0.1,0.2-0.3,0.3-0.5c0.1-0.2,0.2-0.4,0.2-0.7
		c0.1-0.3,0.1-0.6,0.1-0.9C35.5,24.8,35.5,24.5,35.5,24.1"/>
	<path class="st0" d="M29.2,39.9c0,0.1,0,0.3,0,0.4c0,0.1,0,0.2-0.1,0.3c0,0.1-0.1,0.1-0.1,0.1c0,0-0.1,0-0.1,0h-6.1
		c-0.1,0-0.2,0-0.3,0c-0.1,0-0.2-0.1-0.2-0.1c-0.1-0.1-0.1-0.1-0.1-0.3c0-0.1,0-0.3,0-0.4c0-0.2,0-0.3,0-0.4c0-0.1,0-0.2,0.1-0.3
		c0-0.1,0.1-0.2,0.2-0.3c0.1-0.1,0.2-0.2,0.3-0.3l1.9-1.9c0.4-0.4,0.7-0.7,0.9-1c0.2-0.3,0.4-0.6,0.5-0.8c0.1-0.2,0.2-0.5,0.3-0.7
		c0-0.2,0.1-0.4,0.1-0.6c0-0.2,0-0.3-0.1-0.5c-0.1-0.2-0.1-0.3-0.3-0.4c-0.1-0.1-0.3-0.2-0.4-0.3c-0.2-0.1-0.4-0.1-0.6-0.1
		c-0.3,0-0.6,0-0.9,0.1s-0.5,0.2-0.7,0.3c-0.2,0.1-0.3,0.2-0.5,0.3c-0.1,0.1-0.2,0.1-0.3,0.1c-0.1,0-0.1,0-0.1,0
		c0,0-0.1-0.1-0.1-0.2c0-0.1,0-0.2-0.1-0.3c0-0.1,0-0.3,0-0.4c0-0.1,0-0.2,0-0.3c0-0.1,0-0.1,0-0.2c0-0.1,0-0.1,0.1-0.2
		c0,0,0.1-0.1,0.1-0.2c0.1-0.1,0.2-0.1,0.4-0.2c0.2-0.1,0.4-0.2,0.7-0.3c0.3-0.1,0.6-0.2,0.9-0.2c0.3-0.1,0.7-0.1,1-0.1
		c0.6,0,1,0.1,1.5,0.2c0.4,0.1,0.8,0.3,1,0.6c0.3,0.2,0.5,0.5,0.6,0.8c0.1,0.3,0.2,0.7,0.2,1c0,0.3,0,0.6-0.1,1
		c-0.1,0.3-0.2,0.7-0.4,1c-0.2,0.4-0.5,0.8-0.9,1.2c-0.4,0.4-0.9,1-1.5,1.5l-1.2,1.2h4.2c0.1,0,0.1,0,0.2,0c0,0,0.1,0.1,0.1,0.1
		c0,0.1,0.1,0.1,0.1,0.3C29.2,39.6,29.2,39.7,29.2,39.9"/>
	<path class="st0" d="M37.4,37.8c0,0.5-0.1,0.9-0.3,1.3c-0.2,0.4-0.5,0.7-0.9,1c-0.4,0.3-0.8,0.5-1.3,0.6c-0.5,0.1-1.1,0.2-1.7,0.2
		c-0.4,0-0.7,0-1-0.1c-0.3,0-0.6-0.1-0.8-0.2c-0.2-0.1-0.4-0.1-0.6-0.2c-0.2-0.1-0.3-0.1-0.3-0.2c0,0-0.1-0.1-0.1-0.1
		c0-0.1,0-0.1-0.1-0.2c0-0.1,0-0.2,0-0.3c0-0.1,0-0.2,0-0.4c0-0.2,0-0.4,0.1-0.5c0-0.1,0.1-0.1,0.2-0.1c0.1,0,0.2,0,0.3,0.1
		c0.1,0.1,0.3,0.1,0.5,0.2c0.2,0.1,0.5,0.2,0.7,0.2c0.3,0.1,0.6,0.1,1,0.1c0.3,0,0.6,0,0.8-0.1c0.2-0.1,0.4-0.2,0.6-0.3
		c0.2-0.1,0.3-0.3,0.4-0.4c0.1-0.2,0.1-0.4,0.1-0.6c0-0.2,0-0.4-0.1-0.6c-0.1-0.2-0.2-0.3-0.4-0.5c-0.2-0.1-0.4-0.2-0.7-0.3
		c-0.3-0.1-0.6-0.1-1-0.1h-0.9c-0.1,0-0.1,0-0.2,0c0,0-0.1-0.1-0.1-0.1c0-0.1-0.1-0.1-0.1-0.2c0-0.1,0-0.2,0-0.4c0-0.1,0-0.3,0-0.4
		c0-0.1,0-0.2,0.1-0.2c0-0.1,0.1-0.1,0.1-0.1c0,0,0.1,0,0.2,0h0.9c0.3,0,0.6,0,0.9-0.1c0.2-0.1,0.5-0.2,0.6-0.3
		c0.2-0.1,0.3-0.3,0.4-0.5c0.1-0.2,0.1-0.4,0.1-0.6c0-0.2,0-0.3-0.1-0.5c-0.1-0.2-0.2-0.3-0.3-0.4c-0.1-0.1-0.3-0.2-0.5-0.3
		c-0.2-0.1-0.3-0.1-0.5-0.1c-0.3,0-0.7,0-1,0.1c-0.3,0.1-0.5,0.2-0.7,0.3c-0.2,0.1-0.4,0.2-0.5,0.3c-0.1,0.1-0.2,0.1-0.3,0.1
		c0,0-0.1,0-0.1,0c0,0-0.1-0.1-0.1-0.1c0-0.1,0-0.1-0.1-0.2c0-0.1,0-0.2,0-0.4c0-0.1,0-0.2,0-0.3c0-0.1,0-0.2,0-0.2
		c0-0.1,0-0.1,0.1-0.1c0,0,0.1-0.1,0.1-0.1c0.1-0.1,0.2-0.1,0.3-0.2c0.2-0.1,0.4-0.2,0.6-0.3c0.3-0.1,0.6-0.2,0.9-0.2
		c0.3-0.1,0.7-0.1,1.1-0.1c0.5,0,1,0.1,1.4,0.2c0.4,0.1,0.7,0.3,1,0.5c0.3,0.2,0.5,0.5,0.6,0.8c0.1,0.3,0.2,0.7,0.2,1.1
		c0,0.3,0,0.6-0.1,0.9c-0.1,0.3-0.2,0.5-0.4,0.7c-0.2,0.2-0.4,0.4-0.6,0.5c-0.2,0.1-0.5,0.3-0.8,0.3v0c0.4,0,0.7,0.1,1,0.3
		c0.3,0.1,0.5,0.3,0.8,0.5c0.2,0.2,0.4,0.4,0.5,0.7C37.3,37.2,37.4,37.5,37.4,37.8"/>
	<path class="st1" d="M17.6,46.8c3.4,2.6,7.6,4.1,12.2,4.1c1.8,0,3.6-0.2,5.3-0.7l2.4,9.1c-2.5,0.7-5.1,1-7.7,1
		c-8.2,0-15.7-3.4-21.1-8.8C3.3,46,0,38.5,0,30.1c0-2.7,0.4-5.3,1-7.8l9,2.4c-0.5,1.7-0.7,3.5-0.7,5.4c0,4.6,1.5,8.9,4,12.3
		c0.2-1.9,1.9-3.4,3.8-3.4c2.1,0,3.8,1.7,3.8,3.9C21,44.9,19.5,46.6,17.6,46.8"/>
	<path class="st2" d="M54,23.6c0.6,2.1,0.8,4.3,0.8,6.5c0,6-2.1,11.5-5.5,15.9l0,0c2.1,0,3.8,1.7,3.8,3.9c0,2.1-1.7,3.9-3.8,3.9
		s-3.8-1.7-3.8-3.9v0c-4.3,3.5-9.8,5.6-15.7,5.6c-2.2,0-4.4-0.3-6.5-0.9l2.4-9.1c1.3,0.4,2.7,0.5,4.1,0.5c4.3,0,8.3-1.8,11.1-4.7
		c2.8-2.9,4.6-6.8,4.6-11.2c0-1.4-0.2-2.8-0.5-4.1L54,23.6z"/>
	<path class="st3" d="M29.8,4.9c2.2,0,4.4,0.3,6.5,0.9l-2.4,9.1c-1.3-0.4-2.7-0.5-4.1-0.5c-4.3,0-8.3,1.8-11.1,4.6
		c-2.8,2.9-4.6,6.8-4.6,11.2c0,1.4,0.2,2.8,0.5,4.1l-9,2.4c-0.6-2.1-0.8-4.3-0.8-6.5c0-6,2.1-11.5,5.5-15.9h0
		c-2.1,0-3.8-1.7-3.8-3.9c0-2.1,1.7-3.9,3.8-3.9c2.1,0,3.8,1.7,3.8,3.9v0C18.4,6.9,23.9,4.9,29.8,4.9"/>
	<path class="st4" d="M42,13.5c-3.4-2.6-7.6-4.1-12.2-4.1c-1.8,0-3.6,0.2-5.3,0.7L22.1,1c2.5-0.7,5.1-1,7.7-1
		c8.2,0,15.7,3.4,21.1,8.8c5.4,5.5,8.7,13,8.7,21.3c0,2.7-0.4,5.3-1,7.8l-9-2.4c0.5-1.7,0.7-3.5,0.7-5.4c0-4.6-1.5-8.9-4-12.3
		c-0.2,1.9-1.9,3.4-3.8,3.4c-2.1,0-3.8-1.7-3.8-3.9C38.7,15.3,40.1,13.7,42,13.5"/>
	<path class="st5" d="M35.1,10.1c-1.7-0.5-3.5-0.7-5.3-0.7c-1.8,0-3.6,0.2-5.3,0.7l-1.2-4.4c2.1-0.6,4.2-0.9,6.5-0.9
		c2.2,0,4.4,0.3,6.5,0.9L35.1,10.1z"/>
	<path class="st6" d="M54,36.7l-4.4-1.2c0.5-1.7,0.7-3.5,0.7-5.4c0-1.9-0.2-3.7-0.7-5.4l4.4-1.2c0.6,2.1,0.8,4.3,0.8,6.5
		C54.9,32.4,54.6,34.6,54,36.7"/>
	<path class="st7" d="M24.5,50.2c1.7,0.5,3.5,0.7,5.3,0.7c1.8,0,3.6-0.2,5.3-0.7l1.2,4.4c-2.1,0.6-4.2,0.9-6.5,0.9
		c-2.2,0-4.4-0.3-6.5-0.9L24.5,50.2z"/>
	<path class="st8" d="M9.3,30.1c0,1.9,0.2,3.7,0.7,5.4l-4.4,1.2c-0.6-2.1-0.8-4.3-0.8-6.5c0-2.3,0.3-4.5,0.8-6.5l4.4,1.2
		C9.6,26.5,9.3,28.3,9.3,30.1"/>
	<path class="st0" d="M73.5,48c0,0.4-0.1,0.7-0.2,1c-0.1,0.3-0.3,0.5-0.5,0.7c-0.2,0.2-0.5,0.4-0.8,0.5c-0.3,0.1-0.7,0.2-1.1,0.2
		c-0.4,0-0.7,0-1-0.1c-0.3-0.1-0.6-0.2-0.8-0.4c-0.2-0.2-0.4-0.4-0.5-0.7c-0.1-0.3-0.2-0.6-0.2-1v-3.7c0,0,0-0.1,0-0.1
		c0,0,0.1,0,0.1-0.1c0,0,0.1,0,0.2,0c0.1,0,0.2,0,0.3,0c0.1,0,0.2,0,0.3,0c0.1,0,0.1,0,0.2,0c0,0,0.1,0,0.1,0.1c0,0,0,0.1,0,0.1v3.6
		c0,0.2,0,0.4,0.1,0.6c0.1,0.2,0.1,0.3,0.3,0.4c0.1,0.1,0.2,0.2,0.4,0.3c0.2,0.1,0.3,0.1,0.5,0.1c0.2,0,0.4,0,0.5-0.1
		c0.2-0.1,0.3-0.1,0.4-0.3c0.1-0.1,0.2-0.3,0.2-0.4c0.1-0.2,0.1-0.4,0.1-0.6v-3.6c0,0,0-0.1,0-0.1c0,0,0.1,0,0.1-0.1
		c0,0,0.1,0,0.2,0c0.1,0,0.2,0,0.3,0c0.1,0,0.2,0,0.3,0c0.1,0,0.1,0,0.2,0c0,0,0.1,0,0.1,0.1c0,0,0,0.1,0,0.1V48z"/>
	<path class="st0" d="M83.3,50.1C83.3,50.1,83.2,50.1,83.3,50.1c0,0.1-0.1,0.1-0.1,0.1c0,0-0.1,0-0.2,0c-0.1,0-0.2,0-0.4,0
		c-0.1,0-0.2,0-0.3,0c-0.1,0-0.1,0-0.2,0c0,0-0.1,0-0.1-0.1c0,0,0-0.1,0-0.1l-0.5-1.3c-0.1-0.2-0.1-0.3-0.2-0.4
		c-0.1-0.1-0.1-0.2-0.2-0.3c-0.1-0.1-0.2-0.1-0.3-0.2c-0.1,0-0.2-0.1-0.3-0.1H80v2.3c0,0,0,0.1,0,0.1c0,0-0.1,0-0.1,0.1
		c0,0-0.1,0-0.2,0c-0.1,0-0.2,0-0.3,0c-0.1,0-0.2,0-0.3,0c-0.1,0-0.1,0-0.2,0c0,0-0.1,0-0.1-0.1c0,0,0-0.1,0-0.1v-5.5
		c0-0.1,0-0.2,0.1-0.3c0.1-0.1,0.2-0.1,0.3-0.1h1.6c0.2,0,0.3,0,0.4,0c0.1,0,0.2,0,0.3,0c0.2,0,0.5,0.1,0.7,0.2
		c0.2,0.1,0.4,0.2,0.5,0.3c0.1,0.1,0.2,0.3,0.3,0.5c0.1,0.2,0.1,0.4,0.1,0.6c0,0.2,0,0.4-0.1,0.6c-0.1,0.2-0.1,0.3-0.2,0.4
		c-0.1,0.1-0.2,0.2-0.4,0.3c-0.1,0.1-0.3,0.2-0.5,0.2c0.1,0,0.2,0.1,0.3,0.2c0.1,0.1,0.2,0.1,0.2,0.2c0.1,0.1,0.1,0.2,0.2,0.3
		c0.1,0.1,0.1,0.2,0.2,0.4l0.5,1.2c0,0.1,0.1,0.2,0.1,0.3C83.2,50,83.3,50,83.3,50.1 M81.7,46c0-0.2,0-0.4-0.1-0.5
		c-0.1-0.1-0.2-0.2-0.4-0.3c-0.1,0-0.1,0-0.2,0c-0.1,0-0.2,0-0.3,0H80v1.7h0.6c0.2,0,0.3,0,0.5-0.1c0.1,0,0.2-0.1,0.3-0.2
		c0.1-0.1,0.2-0.2,0.2-0.3C81.7,46.2,81.7,46.1,81.7,46"/>
	<path class="st0" d="M93,48c0,0.4-0.1,0.7-0.2,1c-0.1,0.3-0.3,0.5-0.5,0.7c-0.2,0.2-0.5,0.4-0.8,0.5c-0.3,0.1-0.7,0.2-1.1,0.2
		c-0.4,0-0.7,0-1-0.1c-0.3-0.1-0.6-0.2-0.8-0.4c-0.2-0.2-0.4-0.4-0.5-0.7c-0.1-0.3-0.2-0.6-0.2-1v-3.7c0,0,0-0.1,0-0.1
		c0,0,0.1,0,0.1-0.1c0,0,0.1,0,0.2,0c0.1,0,0.2,0,0.3,0c0.1,0,0.2,0,0.3,0c0.1,0,0.1,0,0.2,0c0,0,0.1,0,0.1,0.1c0,0,0,0.1,0,0.1v3.6
		c0,0.2,0,0.4,0.1,0.6c0.1,0.2,0.1,0.3,0.3,0.4c0.1,0.1,0.2,0.2,0.4,0.3c0.2,0.1,0.3,0.1,0.5,0.1c0.2,0,0.4,0,0.5-0.1
		c0.2-0.1,0.3-0.1,0.4-0.3c0.1-0.1,0.2-0.3,0.2-0.4c0.1-0.2,0.1-0.4,0.1-0.6v-3.6c0,0,0-0.1,0-0.1c0,0,0.1,0,0.1-0.1
		c0,0,0.1,0,0.2,0c0.1,0,0.2,0,0.3,0c0.1,0,0.2,0,0.3,0c0.1,0,0.1,0,0.2,0c0,0,0.1,0,0.1,0.1c0,0,0,0.1,0,0.1V48z"/>
	<path class="st0" d="M103.1,45.1c0,0.1,0,0.2,0,0.2c0,0.1,0,0.1,0,0.2c0,0,0,0.1-0.1,0.1c0,0,0,0-0.1,0c0,0-0.1,0-0.2-0.1
		c-0.1-0.1-0.2-0.1-0.4-0.2c-0.1-0.1-0.3-0.1-0.5-0.2c-0.2-0.1-0.4-0.1-0.7-0.1c-0.3,0-0.6,0-0.8,0.2s-0.4,0.2-0.6,0.4
		c-0.2,0.2-0.3,0.4-0.4,0.7c-0.1,0.3-0.1,0.5-0.1,0.9c0,0.3,0,0.6,0.1,0.9c0.1,0.3,0.2,0.5,0.4,0.7c0.2,0.2,0.4,0.3,0.6,0.4
		c0.2,0.1,0.5,0.1,0.8,0.1c0.1,0,0.3,0,0.4,0c0.1,0,0.3-0.1,0.4-0.1v-1.4h-1.1c-0.1,0-0.1,0-0.1-0.1c0-0.1,0-0.2,0-0.4
		c0-0.1,0-0.2,0-0.2c0-0.1,0-0.1,0-0.1c0,0,0-0.1,0.1-0.1c0,0,0,0,0.1,0h2c0.1,0,0.1,0,0.1,0c0,0,0.1,0,0.1,0.1c0,0,0.1,0.1,0.1,0.1
		c0,0,0,0.1,0,0.2v2.4c0,0.1,0,0.2,0,0.2c0,0.1-0.1,0.1-0.2,0.2c-0.1,0-0.2,0.1-0.4,0.1c-0.1,0-0.3,0.1-0.5,0.1
		c-0.2,0-0.3,0.1-0.5,0.1c-0.2,0-0.3,0-0.5,0c-0.5,0-0.9-0.1-1.3-0.2c-0.4-0.1-0.7-0.3-1-0.6c-0.3-0.3-0.5-0.6-0.6-1
		c-0.1-0.4-0.2-0.8-0.2-1.3c0-0.5,0.1-0.9,0.2-1.3c0.1-0.4,0.4-0.7,0.6-1c0.3-0.3,0.6-0.5,1-0.6c0.4-0.1,0.8-0.2,1.3-0.2
		c0.3,0,0.5,0,0.7,0.1c0.2,0,0.4,0.1,0.6,0.1c0.2,0,0.3,0.1,0.4,0.2c0.1,0.1,0.2,0.1,0.2,0.2c0,0,0.1,0.1,0.1,0.2
		C103.1,44.9,103.1,45,103.1,45.1"/>
	<path class="st0" d="M113.3,48c0,0.4-0.1,0.7-0.2,1c-0.1,0.3-0.3,0.5-0.5,0.7c-0.2,0.2-0.5,0.4-0.8,0.5c-0.3,0.1-0.7,0.2-1.1,0.2
		c-0.4,0-0.7,0-1-0.1c-0.3-0.1-0.6-0.2-0.8-0.4c-0.2-0.2-0.4-0.4-0.5-0.7c-0.1-0.3-0.2-0.6-0.2-1v-3.7c0,0,0-0.1,0-0.1
		c0,0,0,0,0.1-0.1c0,0,0.1,0,0.2,0s0.2,0,0.3,0c0.1,0,0.2,0,0.3,0c0.1,0,0.1,0,0.2,0c0,0,0.1,0,0.1,0.1c0,0,0,0.1,0,0.1v3.6
		c0,0.2,0,0.4,0.1,0.6c0.1,0.2,0.1,0.3,0.3,0.4c0.1,0.1,0.2,0.2,0.4,0.3c0.2,0.1,0.3,0.1,0.5,0.1c0.2,0,0.4,0,0.5-0.1
		c0.2-0.1,0.3-0.1,0.4-0.3c0.1-0.1,0.2-0.3,0.2-0.4c0.1-0.2,0.1-0.4,0.1-0.6v-3.6c0,0,0-0.1,0-0.1c0,0,0.1,0,0.1-0.1
		c0,0,0.1,0,0.2,0c0.1,0,0.2,0,0.3,0c0.1,0,0.2,0,0.3,0c0.1,0,0.1,0,0.2,0c0,0,0.1,0,0.1,0.1c0,0,0,0.1,0,0.1V48z"/>
	<path class="st0" d="M123.2,49.8c0,0.1,0.1,0.2,0.1,0.3c0,0.1,0,0.1,0,0.1c0,0-0.1,0.1-0.2,0.1c-0.1,0-0.2,0-0.4,0
		c-0.2,0-0.3,0-0.4,0c-0.1,0-0.2,0-0.2,0c0,0-0.1,0-0.1-0.1c0,0,0-0.1,0-0.1l-0.4-1.2h-2.3L119,50c0,0,0,0.1,0,0.1
		c0,0-0.1,0.1-0.1,0.1c0,0-0.1,0-0.2,0c-0.1,0-0.2,0-0.3,0c-0.1,0-0.3,0-0.3,0c-0.1,0-0.1,0-0.2-0.1c0,0,0-0.1,0-0.1
		c0-0.1,0-0.2,0.1-0.3l1.9-5.3c0-0.1,0-0.1,0.1-0.1c0,0,0.1-0.1,0.1-0.1c0.1,0,0.1,0,0.2,0c0.1,0,0.2,0,0.4,0c0.2,0,0.3,0,0.4,0
		c0.1,0,0.2,0,0.3,0c0.1,0,0.1,0,0.1,0.1c0,0,0.1,0.1,0.1,0.1L123.2,49.8z M120.5,45.3L120.5,45.3l-0.9,2.6h1.7L120.5,45.3z"/>
	<path class="st0" d="M129.7,47.9v2.1c0,0,0,0.1,0,0.1c0,0-0.1,0-0.1,0.1c0,0-0.1,0-0.2,0c-0.1,0-0.2,0-0.3,0c-0.1,0-0.2,0-0.3,0
		c-0.1,0-0.1,0-0.2,0c0,0-0.1,0-0.1-0.1c0,0,0-0.1,0-0.1v-2.1l-1.7-3.3c-0.1-0.1-0.1-0.2-0.1-0.3c0-0.1,0-0.1,0-0.1
		c0,0,0.1-0.1,0.2-0.1c0.1,0,0.2,0,0.4,0c0.1,0,0.3,0,0.3,0c0.1,0,0.2,0,0.2,0c0.1,0,0.1,0,0.1,0.1c0,0,0,0.1,0.1,0.1l0.7,1.5
		c0.1,0.1,0.1,0.3,0.2,0.5c0.1,0.2,0.1,0.3,0.2,0.5h0c0.1-0.2,0.1-0.3,0.2-0.5c0.1-0.2,0.1-0.3,0.2-0.5l0.7-1.5c0,0,0-0.1,0.1-0.1
		c0,0,0.1-0.1,0.1-0.1c0,0,0.1,0,0.2,0c0.1,0,0.2,0,0.3,0c0.2,0,0.3,0,0.4,0c0.1,0,0.2,0,0.2,0.1c0,0,0,0.1,0,0.1
		c0,0.1-0.1,0.2-0.1,0.3L129.7,47.9z"/>
</g>
</svg>
